<?xml version="1.0" encoding="UTF-8" standalone="no"?>
<!-- Generated by graphviz version 2.40.1 (20161225.0304)
 -->

<!-- Title: %3 Pages: 1 -->

<svg
   xmlns:dc="http://purl.org/dc/elements/1.1/"
   xmlns:cc="http://creativecommons.org/ns#"
   xmlns:rdf="http://www.w3.org/1999/02/22-rdf-syntax-ns#"
   xmlns:svg="http://www.w3.org/2000/svg"
   xmlns="http://www.w3.org/2000/svg"
   xmlns:sodipodi="http://sodipodi.sourceforge.net/DTD/sodipodi-0.dtd"
   xmlns:inkscape="http://www.inkscape.org/namespaces/inkscape"
   viewBox="0.00 0.00 1000.00 1279.00"
   version="1.1"
   id="svg186"
   sodipodi:docname="trpl04-06.svg"
   inkscape:version="0.92.1 r15371">
  <metadata
     id="metadata192">
    <rdf:RDF>
      <cc:Work
         rdf:about="">
        <dc:format>image/svg+xml</dc:format>
        <dc:type
           rdf:resource="http://purl.org/dc/dcmitype/StillImage" />
      </cc:Work>
    </rdf:RDF>
  </metadata>
  <defs
     id="defs190" />
  <sodipodi:namedview
     pagecolor="#ffffff"
     bordercolor="#666666"
     borderopacity="1"
     objecttolerance="10"
     gridtolerance="10"
     guidetolerance="10"
     inkscape:pageopacity="0"
     inkscape:pageshadow="2"
     inkscape:window-width="1440"
     inkscape:window-height="844"
     id="namedview188"
     showgrid="false"
     inkscape:zoom="0.36903831"
     inkscape:cx="206.94364"
     inkscape:cy="545.53952"
     inkscape:window-x="0"
     inkscape:window-y="27"
     inkscape:window-maximized="1"
     inkscape:current-layer="node3" />
  <g
     id="graph0"
     class="graph"
     transform="scale(4.1667 4.1667) rotate(0) translate(4 275)">
    <title
       id="title2">%3</title>
    <polygon
       stroke="transparent"
       points="233,4 -4,4 -4,-275 233,-275 "
       id="polygon4"
       transform="translate(1.3006676,18.209346)"
       style="fill:#ffffff" />
    <!-- table0 -->
    <g
       id="node1"
       class="node">
      <title
         id="title6">table0</title>
      <polyline
         fill="none"
         stroke="#000000"
         points="16,-121 88,-121 "
         id="polyline8" />
      <text
         text-anchor="start"
         x="35.6689"
         y="-126.8"
         font-family="Times,serif"
         font-size="14.00"
         fill="#000000"
         id="text10">world</text>
      <polygon
         fill="none"
         stroke="#000000"
         points="16,-101 16,-121 52,-121 52,-101 16,-101"
         id="polygon12" />
      <text
         text-anchor="start"
         x="18.8413"
         y="-106.8"
         font-family="Times,serif"
         font-size="14.00"
         fill="#000000"
         id="text14">name</text>
      <polygon
         fill="none"
         stroke="#000000"
         points="52,-101 52,-121 88,-121 88,-101 52,-101"
         id="polygon16" />
      <text
         text-anchor="start"
         x="54.8413"
         y="-106.8"
         font-family="Times,serif"
         font-size="14.00"
         fill="#000000"
         id="text18">value</text>
      <polygon
         fill="none"
         stroke="#000000"
         points="16,-81 16,-101 52,-101 52,-81 16,-81"
         id="polygon20" />
      <text
         text-anchor="start"
         x="26.2241"
         y="-86.8"
         font-family="Times,serif"
         font-size="14.00"
         fill="#000000"
         id="text22">ptr</text>
      <polygon
         fill="none"
         stroke="#000000"
         points="52,-81 52,-101 88,-101 88,-81 52,-81"
         id="polygon24" />
      <polygon
         fill="none"
         stroke="#000000"
         points="16,-61 16,-81 52,-81 52,-61 16,-61"
         id="polygon26" />
      <text
         text-anchor="start"
         x="25.4482"
         y="-66.8"
         font-family="Times,serif"
         font-size="14.00"
         fill="#000000"
         id="text28">len</text>
      <polygon
         fill="none"
         stroke="#000000"
         points="52,-61 52,-81 88,-81 88,-61 52,-61"
         id="polygon30" />
      <text
         x="66.5"
         y="-66.800003"
         font-size="14.00"
         id="text32"
         style="font-size:14px;font-family:Times, serif;text-anchor:start;fill:#000000">6</text>
    </g>
    <!-- table4 -->
    <g
       id="node3"
       class="node">
      <title
         id="title35">table4</title>
      <polygon
         fill="none"
         stroke="#000000"
         points="148.5,-224 148.5,-244 185.5,-244 185.5,-224 148.5,-224"
         id="polygon37" />
      <text
         text-anchor="start"
         x="151.4482"
         y="-229.8"
         font-family="Times,serif"
         font-size="14.00"
         fill="#000000"
         id="text39">index</text>
      <polygon
         fill="none"
         stroke="#000000"
         points="185.5,-224 185.5,-244 221.5,-244 221.5,-224 185.5,-224"
         id="polygon41" />
      <text
         text-anchor="start"
         x="188.3413"
         y="-229.8"
         font-family="Times,serif"
         font-size="14.00"
         fill="#000000"
         id="text43">value</text>
      <polygon
         fill="none"
         stroke="#000000"
         points="148.5,-204 148.5,-224 185.5,-224 185.5,-204 148.5,-204"
         id="polygon45" />
      <text
         text-anchor="start"
         x="163.5"
         y="-209.8"
         font-family="Times,serif"
         font-size="14.00"
         fill="#000000"
         id="text47">0</text>
      <polygon
         fill="none"
         stroke="#000000"
         points="185.5,-204 185.5,-224 221.5,-224 221.5,-204 185.5,-204"
         id="polygon49" />
      <text
         x="199.20912"
         y="-209.8"
         font-size="14.00"
         id="text51"
         style="font-size:14px;font-family:Times, serif;text-anchor:start;fill:#000000">h</text>
      <polygon
         fill="none"
         stroke="#000000"
         points="148.5,-184 148.5,-204 185.5,-204 185.5,-184 148.5,-184"
         id="polygon53" />
      <text
         text-anchor="start"
         x="163.5"
         y="-189.8"
         font-family="Times,serif"
         font-size="14.00"
         fill="#000000"
         id="text55">1</text>
      <polygon
         fill="none"
         stroke="#000000"
         points="185.5,-184 185.5,-204 221.5,-204 221.5,-184 185.5,-184"
         id="polygon57" />
      <text
         x="199.18813"
         y="-189.8"
         font-size="14.00"
         id="text59"
         style="font-size:14px;font-family:Times, serif;text-anchor:start;fill:#000000">o</text>
      <polygon
         fill="none"
         stroke="#000000"
         points="148.5,-164 148.5,-184 185.5,-184 185.5,-164 148.5,-164"
         id="polygon61" />
      <text
         text-anchor="start"
         x="163.5"
         y="-169.8"
         font-family="Times,serif"
         font-size="14.00"
         fill="#000000"
         id="text63">2</text>
      <polygon
         fill="none"
         stroke="#000000"
         points="185.5,-164 185.5,-184 221.5,-184 221.5,-164 185.5,-164"
         id="polygon65" />
      <text
         x="200.74911"
         y="-169.8"
         font-size="14.00"
         id="text67"
         style="font-size:14px;font-family:Times, serif;text-anchor:start;fill:#000000">l</text>
      <polygon
         fill="none"
         stroke="#000000"
         points="148.5,-144 148.5,-164 185.5,-164 185.5,-144 148.5,-144"
         id="polygon69" />
      <text
         text-anchor="start"
         x="163.5"
         y="-149.8"
         font-family="Times,serif"
         font-size="14.00"
         fill="#000000"
         id="text71">3</text>
      <polygon
         fill="none"
         stroke="#000000"
         points="185.5,-144 185.5,-164 221.5,-164 221.5,-144 185.5,-144"
         id="polygon73" />
      <text
         x="199.32812"
         y="-149.8"
         font-size="14.00"
         id="text75"
         style="font-size:14px;font-family:Times, serif;text-anchor:start;fill:#000000">a</text>
      <polygon
         fill="none"
         stroke="#000000"
         points="148.5,-124 148.5,-144 185.5,-144 185.5,-124 148.5,-124"
         id="polygon77" />
      <text
         text-anchor="start"
         x="163.5"
         y="-129.8"
         font-family="Times,serif"
         font-size="14.00"
         fill="#000000"
         id="text79">4</text>
      <polygon
         fill="none"
         stroke="#000000"
         points="185.5,-124 185.5,-144 221.5,-144 221.5,-124 185.5,-124"
         id="polygon81" />
      <text
         x="200"
         y="-129.8"
         font-size="14.00"
         id="text83"
         style="font-size:14px;font-family:Times, serif;text-anchor:start;fill:#000000"></text>
      <polygon
         fill="none"
         stroke="#000000"
         points="148.5,-104 148.5,-124 185.5,-124 185.5,-104 148.5,-104"
         id="polygon85" />
      <text
         text-anchor="start"
         x="163.5"
         y="-109.8"
         font-family="Times,serif"
         font-size="14.00"
         fill="#000000"
         id="text87">5</text>
      <polygon
         fill="none"
         stroke="#000000"
         points="185.5,-104 185.5,-124 221.5,-124 221.5,-104 185.5,-104"
         id="polygon89" />
      <text
         text-anchor="start"
         x="201.75"
         y="-109.8"
         font-family="Times,serif"
         font-size="14.00"
         fill="#000000"
         id="text91" />
      <polygon
         fill="none"
         stroke="#000000"
         points="148.5,-84 148.5,-104 185.5,-104 185.5,-84 148.5,-84"
         id="polygon93" />
      <text
         text-anchor="start"
         x="163.5"
         y="-89.8"
         font-family="Times,serif"
         font-size="14.00"
         fill="#000000"
         id="text95">6</text>
      <polygon
         fill="none"
         stroke="#000000"
         points="185.5,-84 185.5,-104 221.5,-104 221.5,-84 185.5,-84"
         id="polygon97" />
      <text
         x="197.14412"
         y="-111.26102"
         font-size="14.00"
         id="text99"
         style="font-size:14px;font-family:Times, serif;text-anchor:start;fill:#000000">m</text>
      <polygon
         fill="none"
         stroke="#000000"
         points="148.5,-64 148.5,-84 185.5,-84 185.5,-64 148.5,-64"
         id="polygon101" />
      <text
         text-anchor="start"
         x="163.5"
         y="-69.8"
         font-family="Times,serif"
         font-size="14.00"
         fill="#000000"
         id="text103">7</text>
      <polygon
         fill="none"
         stroke="#000000"
         points="185.5,-64 185.5,-84 221.5,-84 221.5,-64 185.5,-64"
         id="polygon105" />
      <text
         x="199.26512"
         y="-90.610687"
         font-size="14.00"
         id="text107"
         style="font-size:14px;font-family:Times, serif;text-anchor:start;fill:#000000">u</text>
      <polygon
         fill="none"
         stroke="#000000"
         points="148.5,-44 148.5,-64 185.5,-64 185.5,-44 148.5,-44"
         id="polygon109" />
      <text
         text-anchor="start"
         x="163.5"
         y="-49.8"
         font-family="Times,serif"
         font-size="14.00"
         fill="#000000"
         id="text111">8</text>
      <polygon
         fill="none"
         stroke="#000000"
         points="185.5,-44 185.5,-64 221.5,-64 221.5,-44 185.5,-44"
         id="polygon113" />
      <text
         x="199.17412"
         y="-70.953346"
         font-size="14.00"
         id="text115"
         style="font-size:14px;font-family:Times, serif;text-anchor:start;fill:#000000">n</text>
      <polygon
         fill="none"
         stroke="#000000"
         points="148.5,-24 148.5,-44 185.5,-44 185.5,-24 148.5,-24"
         id="polygon117" />
      <text
         text-anchor="start"
         x="163.5"
         y="-29.8"
         font-family="Times,serif"
         font-size="14.00"
         fill="#000000"
         id="text119">9</text>
      <polygon
         fill="none"
         stroke="#000000"
         points="185.5,-24 185.5,-44 221.5,-44 221.5,-24 185.5,-24"
         id="polygon121" />
      <text
         x="199.05511"
         y="-50.033638"
         font-size="14.00"
         id="text123"
         style="font-size:14px;font-family:Times, serif;text-anchor:start;fill:#000000">d</text>
      <text
         x="199.18813"
         y="-30.03364"
         font-size="14.00"
         id="text131"
         style="font-size:14px;font-family:Times, serif;text-anchor:start;fill:#000000">o</text>
    </g>
    <!-- table0&#45;&gt;table4 -->
    <g
       id="edge1"
       class="edge"
       transform="matrix(0.99311165,0,0,1.1209343,-0.39199226,12.737964)">
      <title
         id="title134">table0:c-&gt;table4:pointee2</title>
      <path
         d="m 70.019861,-91.568613 c 58.370899,0.902995 27.880364,-40.663047 68.063249,-38.428137"
         id="path136"
         inkscape:connector-curvature="0"
         style="fill:none;stroke:#000000"
         sodipodi:nodetypes="cc" />
      <polygon
         points="138.4743,-97.4257 148.5,-94 138.5263,-90.4259 "
         id="polygon138"
         style="fill:#000000;stroke:#000000"
         transform="translate(-0.46304504,-36.101382)" />
    </g>
    <!-- table3 -->
    <g
       id="node2"
       class="node">
      <title
         id="title141">table3</title>
      <polyline
         fill="none"
         stroke="#000000"
         points="8,-247 96,-247 "
         id="polyline143" />
      <text
         text-anchor="start"
         x="49.2759"
         y="-252.8"
         font-family="Times,serif"
         font-size="14.00"
         fill="#000000"
         id="text145">s</text>
      <polygon
         fill="none"
         stroke="#000000"
         points="8,-227 8,-247 60,-247 60,-227 8,-227"
         id="polygon147" />
      <text
         text-anchor="start"
         x="18.8413"
         y="-232.8"
         font-family="Times,serif"
         font-size="14.00"
         fill="#000000"
         id="text149">name</text>
      <polygon
         fill="none"
         stroke="#000000"
         points="60,-227 60,-247 96,-247 96,-227 60,-227"
         id="polygon151" />
      <text
         text-anchor="start"
         x="62.8413"
         y="-232.8"
         font-family="Times,serif"
         font-size="14.00"
         fill="#000000"
         id="text153">value</text>
      <polygon
         fill="none"
         stroke="#000000"
         points="8,-207 8,-227 60,-227 60,-207 8,-207"
         id="polygon155" />
      <text
         text-anchor="start"
         x="26.2241"
         y="-212.8"
         font-family="Times,serif"
         font-size="14.00"
         fill="#000000"
         id="text157">ptr</text>
      <polygon
         fill="none"
         stroke="#000000"
         points="60,-207 60,-227 96,-227 96,-207 60,-207"
         id="polygon159" />
      <polygon
         fill="none"
         stroke="#000000"
         points="8,-187 8,-207 60,-207 60,-187 8,-187"
         id="polygon161" />
      <text
         text-anchor="start"
         x="25.4482"
         y="-192.8"
         font-family="Times,serif"
         font-size="14.00"
         fill="#000000"
         id="text163">len</text>
      <polygon
         fill="none"
         stroke="#000000"
         points="60,-187 60,-207 96,-207 96,-187 60,-187"
         id="polygon165" />
      <text
         x="71.256302"
         y="-192.8"
         font-size="14.00"
         id="text167"
         style="font-size:14px;font-family:Times, serif;text-anchor:start;fill:#000000">10</text>
      <polygon
         fill="none"
         stroke="#000000"
         points="8,-167 8,-187 60,-187 60,-167 8,-167"
         id="polygon169" />
      <text
         text-anchor="start"
         x="10.6826"
         y="-172.8"
         font-family="Times,serif"
         font-size="14.00"
         fill="#000000"
         id="text171">capacity</text>
      <polygon
         fill="none"
         stroke="#000000"
         points="60,-167 60,-187 96,-187 96,-167 60,-167"
         id="polygon173" />
      <text
         x="71.256302"
         y="-172.8"
         font-size="14.00"
         id="text175"
         style="font-size:14px;font-family:Times, serif;text-anchor:start;fill:#000000">10</text>
    </g>
    <!-- table3&#45;&gt;table4 -->
    <g
       id="edge2"
       class="edge">
      <title
         id="title178">table3:c-&gt;table4:pointee</title>
      <path
         fill="none"
         stroke="#000000"
         d="M78,-217C78,-217 109.3179,-214.5994 138.3725,-214.0931"
         id="path180" />
      <polygon
         fill="#000000"
         stroke="#000000"
         points="138.5326,-217.5918 148.5,-214 138.4682,-210.5921 138.5326,-217.5918"
         id="polygon182" />
    </g>
    <text
       xml:space="preserve"
       style="font-style:normal;font-weight:normal;font-size:9.59992313px;line-height:1.25;font-family:sans-serif;letter-spacing:0px;word-spacing:0px;fill:#000000;fill-opacity:1;stroke:none;stroke-width:0.23999809"
       x="200.85515"
       y="-109.81523"
       id="text196"><tspan
         sodipodi:role="line"
         id="tspan194"
         x="200.85515"
         y="-101.32155"
         style="stroke-width:0.23999809"></tspan></text>
  </g>
</svg>
