<?xml version="1.0" encoding="UTF-8" standalone="no"?>
<!-- Generated by graphviz version 2.40.1 (20161225.0304)
 -->

<!-- Title: %3 Pages: 1 -->

<svg
   xmlns:dc="http://purl.org/dc/elements/1.1/"
   xmlns:cc="http://creativecommons.org/ns#"
   xmlns:rdf="http://www.w3.org/1999/02/22-rdf-syntax-ns#"
   xmlns:svg="http://www.w3.org/2000/svg"
   xmlns="http://www.w3.org/2000/svg"
   xmlns:sodipodi="http://sodipodi.sourceforge.net/DTD/sodipodi-0.dtd"
   xmlns:inkscape="http://www.inkscape.org/namespaces/inkscape"
   viewBox="0.00 0.00 1000.00 1000.00"
   version="1.1"
   id="svg146"
   sodipodi:docname="trpl04-04.svg"
   inkscape:version="0.92.1 r15371">
  <metadata
     id="metadata152">
    <rdf:RDF>
      <cc:Work
         rdf:about="">
        <dc:format>image/svg+xml</dc:format>
        <dc:type
           rdf:resource="http://purl.org/dc/dcmitype/StillImage" />
        <dc:title />
      </cc:Work>
    </rdf:RDF>
  </metadata>
  <defs
     id="defs150" />
  <sodipodi:namedview
     pagecolor="#ffffff"
     bordercolor="#666666"
     borderopacity="1"
     objecttolerance="10"
     gridtolerance="10"
     guidetolerance="10"
     inkscape:pageopacity="0"
     inkscape:pageshadow="2"
     inkscape:window-width="1440"
     inkscape:window-height="844"
     id="namedview148"
     showgrid="false"
     inkscape:zoom="0.472"
     inkscape:cx="-155.49183"
     inkscape:cy="536.19784"
     inkscape:window-x="0"
     inkscape:window-y="27"
     inkscape:window-maximized="1"
     inkscape:current-layer="edge1" />
  <g
     id="graph0"
     class="graph"
     transform="matrix(3.6800241,0,0,3.7581252,124.06985,942.37324)">
    <title
       id="title2">%3</title>
    <polygon
       stroke="transparent"
       points="-4,4 -4,-238 233,-238 233,4 "
       id="polygon4"
       transform="matrix(1.0910235,0,0,1,-21.208483,0)"
       style="fill:#ffffff" />
    <!-- table0 -->
    <!-- table1 -->
    <!-- table0&#45;&gt;table1 -->
    <g
       id="edge1"
       class="edge">
      <title
         id="title94">table0:c-&gt;table1:pointee</title>
      <path
         d="m 78,-180 c 0,0 23.9982,53.088 60.4405,61.7977"
         id="path96"
         inkscape:connector-curvature="0"
         style="fill:none;stroke:#000000;stroke-width:1.00003502;stroke-miterlimit:4;stroke-dasharray:3.00010506,3.00010506;stroke-dashoffset:0" />
      <polygon
         points="138.986,-121.6621 148.5,-117 138.1553,-114.7115 "
         id="polygon98"
         style="fill:#000000;stroke:#000000" />
    </g>
    <!-- table3 -->
    <!-- table3&#45;&gt;table1 -->
    <g
       id="edge2"
       class="edge">
      <title
         id="title138">table3:c-&gt;table1:pointee</title>
      <path
         d="m 78,-54 c 0,0 23.9982,-53.088 60.4405,-61.7977"
         id="path140"
         inkscape:connector-curvature="0"
         style="fill:none;stroke:#000000" />
      <polygon
         points="138.1553,-119.2885 148.5,-117 138.986,-112.3379 "
         id="polygon142"
         style="fill:#000000;stroke:#000000" />
    </g>
    <g
       id="node1"
       class="node"
       transform="matrix(1.0723266,0,0,0.99985495,-13.049807,-81.371044)">
      <title
         id="title6">table0</title>
      <polyline
         points="8,-124 96,-124 "
         id="polyline8"
         style="fill:none;stroke:#000000" />
      <text
         x="45.775902"
         y="-129.8"
         font-size="14.00"
         id="text10"
         style="font-size:14px;font-family:Times, serif;text-anchor:start;fill:#000000">s1</text>
      <polygon
         points="8,-104 8,-124 60,-124 60,-104 "
         id="polygon12"
         style="fill:none;stroke:#000000"
         transform="matrix(1.2023833,0,0,0.99513124,-12.191791,-0.55503858)" />
      <text
         x="8.4514999"
         y="-109.8"
         font-size="14.00"
         id="text14"
         style="font-size:14px;font-family:Times, serif;text-anchor:start;fill:#000000">nombre</text>
      <polygon
         points="96,-104 60,-104 60,-124 96,-124 "
         id="polygon16"
         style="fill:none;stroke:#000000" />
      <text
         x="62.841301"
         y="-109.8"
         font-size="14.00"
         id="text18"
         style="font-size:14px;font-family:Times, serif;text-anchor:start;fill:#000000">valor</text>
      <polygon
         points="8,-104 60,-104 60,-84 8,-84 "
         id="polygon20"
         style="fill:none;stroke:#000000"
         transform="matrix(1.2024054,0,0,0.99513228,-12.192543,-0.45756624)" />
      <text
         x="22.24103"
         y="-91.22393"
         font-size="14.00"
         id="text22"
         style="font-size:14px;font-family:Times, serif;text-anchor:start;fill:#000000">ptr</text>
      <polygon
         points="96,-84 60,-84 60,-104 96,-104 "
         id="polygon24"
         style="fill:none;stroke:#000000" />
      <polygon
         points="8,-64 8,-84 60,-84 60,-64 "
         id="polygon26"
         style="fill:none;stroke:#000000"
         transform="matrix(1.2023833,0,0,0.99513124,-12.191791,-0.3602882)" />
      <text
         x="18.665709"
         y="-71.223717"
         font-size="14.00"
         id="text28"
         style="font-size:14px;font-family:Times, serif;text-anchor:start;fill:#000000">long</text>
      <polygon
         points="96,-64 60,-64 60,-84 96,-84 "
         id="polygon30"
         style="fill:none;stroke:#000000" />
      <text
         x="74.5"
         y="-69.800003"
         font-size="14.00"
         id="text32"
         style="font-size:14px;font-family:Times, serif;text-anchor:start;fill:#000000">5</text>
      <polygon
         points="8,-44 8,-64 60,-64 60,-44 "
         id="polygon34"
         style="fill:none;stroke:#000000"
         transform="matrix(1.2023833,0,0,0.99513124,-12.191791,-0.26291301)" />
      <text
         x="0.72492421"
         y="-49.799999"
         font-size="14.00"
         id="text36"
         style="font-size:14px;font-family:Times, serif;text-anchor:start;fill:#000000">capacidad</text>
      <polygon
         points="96,-44 60,-44 60,-64 96,-64 "
         id="polygon38"
         style="fill:none;stroke:#000000" />
      <text
         x="74.5"
         y="-49.799999"
         font-size="14.00"
         id="text40"
         style="font-size:14px;font-family:Times, serif;text-anchor:start;fill:#000000">5</text>
    </g>
    <g
       id="node1-3"
       class="node"
       transform="matrix(1.0723266,0,0,0.99985495,-12.33073,40.154468)">
      <title
         id="title6-6">table0</title>
      <polyline
         points="8,-124 96,-124 "
         id="polyline8-7"
         style="fill:none;stroke:#000000" />
      <text
         x="45.775902"
         y="-129.8"
         font-size="14.00"
         id="text10-5"
         style="font-size:14px;font-family:Times, serif;text-anchor:start;fill:#000000">s2</text>
      <polygon
         points="8,-124 60,-124 60,-104 8,-104 "
         id="polygon12-3"
         style="fill:none;stroke:#000000"
         transform="matrix(1.2023833,0,0,0.99513124,-12.191791,-0.55503858)" />
      <text
         x="8.4514999"
         y="-109.8"
         font-size="14.00"
         id="text14-5"
         style="font-size:14px;font-family:Times, serif;text-anchor:start;fill:#000000">nombre</text>
      <polygon
         points="60,-104 60,-124 96,-124 96,-104 "
         id="polygon16-6"
         style="fill:none;stroke:#000000" />
      <text
         x="62.841301"
         y="-109.8"
         font-size="14.00"
         id="text18-2"
         style="font-size:14px;font-family:Times, serif;text-anchor:start;fill:#000000">valor</text>
      <polygon
         points="60,-104 60,-84 8,-84 8,-104 "
         id="polygon20-9"
         style="fill:none;stroke:#000000"
         transform="matrix(1.2024054,0,0,0.99513228,-12.192543,-0.45756624)" />
      <text
         x="22.24103"
         y="-91.22393"
         font-size="14.00"
         id="text22-1"
         style="font-size:14px;font-family:Times, serif;text-anchor:start;fill:#000000">ptr</text>
      <polygon
         points="60,-84 60,-104 96,-104 96,-84 "
         id="polygon24-2"
         style="fill:none;stroke:#000000" />
      <polygon
         points="8,-84 60,-84 60,-64 8,-64 "
         id="polygon26-7"
         style="fill:none;stroke:#000000"
         transform="matrix(1.2023833,0,0,0.99513124,-12.191791,-0.3602882)" />
      <text
         x="18.665709"
         y="-71.223717"
         font-size="14.00"
         id="text28-0"
         style="font-size:14px;font-family:Times, serif;text-anchor:start;fill:#000000">long</text>
      <polygon
         points="60,-64 60,-84 96,-84 96,-64 "
         id="polygon30-9"
         style="fill:none;stroke:#000000" />
      <text
         x="74.5"
         y="-69.800003"
         font-size="14.00"
         id="text32-3"
         style="font-size:14px;font-family:Times, serif;text-anchor:start;fill:#000000">5</text>
      <polygon
         points="8,-64 60,-64 60,-44 8,-44 "
         id="polygon34-6"
         style="fill:none;stroke:#000000"
         transform="matrix(1.2023833,0,0,0.99513124,-12.191791,-0.26291301)" />
      <text
         x="0.72492421"
         y="-49.799999"
         font-size="14.00"
         id="text36-0"
         style="font-size:14px;font-family:Times, serif;text-anchor:start;fill:#000000">capacidad</text>
      <polygon
         points="60,-44 60,-64 96,-64 96,-44 "
         id="polygon38-6"
         style="fill:none;stroke:#000000" />
      <text
         x="74.5"
         y="-49.799999"
         font-size="14.00"
         id="text40-2"
         style="font-size:14px;font-family:Times, serif;text-anchor:start;fill:#000000">5</text>
    </g>
    <g
       transform="translate(1.5577652,-23.168568)"
       id="node2"
       class="node">
      <title
         id="title43">table1</title>
      <polygon
         style="fill:none;stroke:#000000"
         points="148.5,-104 148.5,-124 185.5,-124 185.5,-104 "
         id="polygon45" />
      <text
         x="150.02448"
         y="-109.8"
         font-size="14.00"
         id="text47"
         style="font-size:14px;font-family:Times, serif;text-anchor:start;fill:#000000">indice</text>
      <polygon
         style="fill:none;stroke:#000000"
         points="185.5,-104 185.5,-124 221.5,-124 221.5,-104 "
         id="polygon49" />
      <text
         x="188.34129"
         y="-109.8"
         font-size="14.00"
         id="text51"
         style="font-size:14px;font-family:Times, serif;text-anchor:start;fill:#000000">valor</text>
      <polygon
         style="fill:none;stroke:#000000"
         points="148.5,-84 148.5,-104 185.5,-104 185.5,-84 "
         id="polygon53" />
      <text
         style="font-size:14px;font-family:Times, serif;text-anchor:start;fill:#000000"
         x="163.5"
         y="-89.800003"
         font-size="14.00"
         id="text55">0</text>
      <polygon
         style="fill:none;stroke:#000000"
         points="185.5,-84 185.5,-104 221.5,-104 221.5,-84 "
         id="polygon57" />
      <text
         style="font-size:14px;font-family:Times, serif;text-anchor:start;fill:#000000"
         x="200"
         y="-89.800003"
         font-size="14.00"
         id="text59">h</text>
      <polygon
         style="fill:none;stroke:#000000"
         points="148.5,-64 148.5,-84 185.5,-84 185.5,-64 "
         id="polygon61" />
      <text
         style="font-size:14px;font-family:Times, serif;text-anchor:start;fill:#000000"
         x="163.5"
         y="-69.800003"
         font-size="14.00"
         id="text63">1</text>
      <polygon
         style="fill:none;stroke:#000000"
         points="185.5,-64 185.5,-84 221.5,-84 221.5,-64 "
         id="polygon65" />
      <text
         x="200.3931"
         y="-69.800003"
         font-size="14.00"
         id="text67"
         style="font-size:14px;font-family:Times, serif;text-anchor:start;fill:#000000">e</text>
      <polygon
         style="fill:none;stroke:#000000"
         points="148.5,-44 148.5,-64 185.5,-64 185.5,-44 "
         id="polygon69" />
      <text
         style="font-size:14px;font-family:Times, serif;text-anchor:start;fill:#000000"
         x="163.5"
         y="-49.799999"
         font-size="14.00"
         id="text71">2</text>
      <polygon
         style="fill:none;stroke:#000000"
         points="185.5,-44 185.5,-64 221.5,-64 221.5,-44 "
         id="polygon73" />
      <text
         style="font-size:14px;font-family:Times, serif;text-anchor:start;fill:#000000"
         x="201.55521"
         y="-49.799999"
         font-size="14.00"
         id="text75">l</text>
      <polygon
         style="fill:none;stroke:#000000"
         points="148.5,-24 148.5,-44 185.5,-44 185.5,-24 "
         id="polygon77" />
      <text
         style="font-size:14px;font-family:Times, serif;text-anchor:start;fill:#000000"
         x="163.5"
         y="-29.799999"
         font-size="14.00"
         id="text79">3</text>
      <polygon
         style="fill:none;stroke:#000000"
         points="185.5,-24 185.5,-44 221.5,-44 221.5,-24 "
         id="polygon81" />
      <text
         x="201.55521"
         y="-29.799999"
         font-size="14.00"
         id="text83"
         style="font-size:14px;font-family:Times, serif;text-anchor:start;fill:#000000">l</text>
      <polygon
         style="fill:none;stroke:#000000"
         points="148.5,-4 148.5,-24 185.5,-24 185.5,-4 "
         id="polygon85" />
      <text
         style="font-size:14px;font-family:Times, serif;text-anchor:start;fill:#000000"
         x="163.5"
         y="-9.8000002"
         font-size="14.00"
         id="text87">4</text>
      <polygon
         style="fill:none;stroke:#000000"
         points="185.5,-4 185.5,-24 221.5,-24 221.5,-4 "
         id="polygon89" />
      <text
         xml:space="preserve"
         style="font-style:normal;font-weight:normal;font-size:13.98274347px;line-height:1.25;font-family:Times, serif;letter-spacing:0px;word-spacing:0px;fill:#000000;fill-opacity:1;stroke:none;stroke-width:0.23999809;-inkscape-font-specification:'Times, serif, Normal';font-stretch:normal;font-variant:normal;text-anchor:start;text-align:start;writing-mode:lr;font-variant-ligatures:normal;font-variant-caps:normal;font-variant-numeric:normal;font-feature-settings:normal;"
         x="199.85229"
         y="-11.911948"
         id="text112"><tspan
           sodipodi:role="line"
           id="tspan110"
           x="199.85229"
           y="-11.911948"
           style="stroke-width:0.23999809;-inkscape-font-specification:'Times, serif, Normal';font-family:Times, serif;font-weight:normal;font-style:normal;font-stretch:normal;font-variant:normal;font-size:13.98274347px;text-anchor:start;text-align:start;writing-mode:lr;font-variant-ligatures:normal;font-variant-caps:normal;font-variant-numeric:normal;font-feature-settings:normal;">o</tspan></text>
    </g>
    <path
       style="fill:none;stroke:#000000;stroke-width:5.37797826;stroke-linecap:butt;stroke-linejoin:miter;stroke-opacity:1;stroke-miterlimit:4;stroke-dasharray:none"
       d="M -22.198717,-119.96799 C 99.850002,-213.89472 99.850002,-213.89472 99.850002,-213.89472"
       id="path84"
       inkscape:connector-curvature="0" />
    <path
       style="fill:none;stroke:#000000;stroke-width:5.37797826;stroke-linecap:butt;stroke-linejoin:miter;stroke-opacity:1;stroke-miterlimit:4;stroke-dasharray:none"
       d="M -28.532979,-216.9312 C 98.12426,-122.22115 98.12426,-122.22115 98.12426,-122.22115"
       id="path86"
       inkscape:connector-curvature="0" />
  </g>
</svg>
