<?xml version="1.0" encoding="UTF-8" standalone="no"?>
<!-- Generated by graphviz version 2.40.1 (20161225.0304)
 -->

<!-- Title: %3 Pages: 1 -->

<svg
   xmlns:dc="http://purl.org/dc/elements/1.1/"
   xmlns:cc="http://creativecommons.org/ns#"
   xmlns:rdf="http://www.w3.org/1999/02/22-rdf-syntax-ns#"
   xmlns:svg="http://www.w3.org/2000/svg"
   xmlns="http://www.w3.org/2000/svg"
   xmlns:sodipodi="http://sodipodi.sourceforge.net/DTD/sodipodi-0.dtd"
   xmlns:inkscape="http://www.inkscape.org/namespaces/inkscape"
   viewBox="0.00 0.00 1500.00 650.00"
   version="1.1"
   id="svg130"
   sodipodi:docname="trpl04-05.svg"
   inkscape:version="0.92.1 r15371">
  <metadata
     id="metadata136">
    <rdf:RDF>
      <cc:Work
         rdf:about="">
        <dc:format>image/svg+xml</dc:format>
        <dc:type
           rdf:resource="http://purl.org/dc/dcmitype/StillImage" />
      </cc:Work>
    </rdf:RDF>
  </metadata>
  <defs
     id="defs134" />
  <sodipodi:namedview
     pagecolor="#ffffff"
     bordercolor="#666666"
     borderopacity="1"
     objecttolerance="10"
     gridtolerance="10"
     guidetolerance="10"
     inkscape:pageopacity="0"
     inkscape:pageshadow="2"
     inkscape:window-width="1440"
     inkscape:window-height="844"
     id="namedview132"
     showgrid="false"
     inkscape:zoom="0.41955002"
     inkscape:cx="501.83734"
     inkscape:cy="709.93018"
     inkscape:window-x="0"
     inkscape:window-y="27"
     inkscape:window-maximized="1"
     inkscape:current-layer="node2" />
  <g
     id="graph0"
     class="graph"
     transform="scale(4.1667 4.1667) rotate(0) translate(4 152)">
    <title
       id="title2">%3</title>
    <polygon
       fill="#ffffff"
       stroke="transparent"
       points="-4,4 -4,-152 357,-152 357,4 -4,4"
       id="polygon4" />
    <!-- table0 -->
    <!-- table1 -->
    <!-- table0&#45;&gt;table1 -->
    <g
       id="edge2"
       class="edge"
       transform="matrix(0.77935721,0,0,1,29.124848,0)">
      <title
         id="title64">table0:c-&gt;table1:borrowee</title>
      <path
         d="m 62,-94 c 0,0 31.1184,0 59.9514,0"
         id="path66"
         inkscape:connector-curvature="0"
         style="fill:none;stroke:#000000" />
      <polygon
         points="132,-94 122,-90.5001 122,-97.5001 "
         id="polygon68"
         style="fill:#000000;stroke:#000000" />
    </g>
    <!-- table2 -->
    <g
       id="node3"
       class="node">
      <title
         id="title71">table2</title>
      <polygon
         fill="none"
         stroke="#000000"
         points="272.5,-84 272.5,-104 309.5,-104 309.5,-84 272.5,-84"
         id="polygon81" />
      <text
         text-anchor="start"
         x="287.5"
         y="-89.8"
         font-family="Times,serif"
         font-size="14.00"
         fill="#000000"
         id="text83">0</text>
      <polygon
         fill="none"
         stroke="#000000"
         points="309.5,-84 309.5,-104 345.5,-104 345.5,-84 309.5,-84"
         id="polygon85" />
      <text
         text-anchor="start"
         x="324"
         y="-89.8"
         font-family="Times,serif"
         font-size="14.00"
         fill="#000000"
         id="text87">h</text>
      <polygon
         fill="none"
         stroke="#000000"
         points="272.5,-64 272.5,-84 309.5,-84 309.5,-64 272.5,-64"
         id="polygon89" />
      <text
         text-anchor="start"
         x="287.5"
         y="-69.8"
         font-family="Times,serif"
         font-size="14.00"
         fill="#000000"
         id="text91">1</text>
      <polygon
         fill="none"
         stroke="#000000"
         points="309.5,-64 309.5,-84 345.5,-84 345.5,-64 309.5,-64"
         id="polygon93" />
      <text
         text-anchor="start"
         x="324.3931"
         y="-69.8"
         font-family="Times,serif"
         font-size="14.00"
         fill="#000000"
         id="text95">e</text>
      <polygon
         fill="none"
         stroke="#000000"
         points="272.5,-44 272.5,-64 309.5,-64 309.5,-44 272.5,-44"
         id="polygon97" />
      <text
         text-anchor="start"
         x="287.5"
         y="-49.8"
         font-family="Times,serif"
         font-size="14.00"
         fill="#000000"
         id="text99">2</text>
      <polygon
         fill="none"
         stroke="#000000"
         points="309.5,-44 309.5,-64 345.5,-64 345.5,-44 309.5,-44"
         id="polygon101" />
      <text
         text-anchor="start"
         x="325.5552"
         y="-49.8"
         font-family="Times,serif"
         font-size="14.00"
         fill="#000000"
         id="text103">l</text>
      <polygon
         fill="none"
         stroke="#000000"
         points="272.5,-24 272.5,-44 309.5,-44 309.5,-24 272.5,-24"
         id="polygon105" />
      <text
         text-anchor="start"
         x="287.5"
         y="-29.8"
         font-family="Times,serif"
         font-size="14.00"
         fill="#000000"
         id="text107">3</text>
      <polygon
         fill="none"
         stroke="#000000"
         points="309.5,-24 309.5,-44 345.5,-44 345.5,-24 309.5,-24"
         id="polygon109" />
      <text
         text-anchor="start"
         x="325.5552"
         y="-29.8"
         font-family="Times,serif"
         font-size="14.00"
         fill="#000000"
         id="text111">l</text>
      <polygon
         fill="none"
         stroke="#000000"
         points="272.5,-4 272.5,-24 309.5,-24 309.5,-4 272.5,-4"
         id="polygon113" />
      <text
         text-anchor="start"
         x="287.5"
         y="-9.8"
         font-family="Times,serif"
         font-size="14.00"
         fill="#000000"
         id="text115">4</text>
      <polygon
         fill="none"
         stroke="#000000"
         points="309.5,-4 309.5,-24 345.5,-24 345.5,-4 309.5,-4"
         id="polygon117" />
      <text
         text-anchor="start"
         x="324"
         y="-9.8"
         font-family="Times,serif"
         font-size="14.00"
         fill="#000000"
         id="text119">o</text>
    </g>
    <!-- table1&#45;&gt;table2 -->
    <g
       id="edge1"
       class="edge"
       transform="matrix(0.67544008,0,0,1,88.442579,0)">
      <title
         id="title122">table1:c-&gt;table2:pointee</title>
      <path
         d="m 202,-94 c 0,0 31.3406,0 60.3797,0"
         id="path124"
         inkscape:connector-curvature="0"
         style="fill:none;stroke:#000000" />
      <polygon
         points="272.5,-94 262.5,-90.5001 262.5,-97.5001 "
         id="polygon126"
         style="fill:#000000;stroke:#000000" />
    </g>
    <g
       transform="translate(-398.36549,-197.99839)"
       id="node2"
       class="node">
      <title
         id="title43">table1</title>
      <polygon
         style="fill:none;stroke:#000000"
         points="148.5,-124 185.5,-124 185.5,-104 148.5,-104 "
         id="polygon45"
         transform="translate(522.36549,197.99839)" />
      <text
         x="672.38995"
         y="88.198387"
         font-size="14.00"
         id="text47"
         style="font-size:14px;font-family:Times, serif;text-anchor:start;fill:#000000">indice</text>
      <polygon
         style="fill:none;stroke:#000000"
         points="185.5,-124 221.5,-124 221.5,-104 185.5,-104 "
         id="polygon49"
         transform="translate(522.36549,197.99839)" />
      <text
         x="710.70679"
         y="88.198387"
         font-size="14.00"
         id="text51"
         style="font-size:14px;font-family:Times, serif;text-anchor:start;fill:#000000">valor</text>
    </g>
  </g>
  <g
     id="node1-7"
     class="node"
     transform="matrix(4.4680632,0,0,4.1660956,585.21538,632.66065)">
    <title
       id="title6-5">table0</title>
    <polyline
       points="8,-124 96,-124 "
       id="polyline8-3"
       style="fill:none;stroke:#000000" />
    <text
       x="45.775902"
       y="-129.8"
       font-size="14.00"
       id="text10-5"
       style="font-size:14px;font-family:Times, serif;text-anchor:start;fill:#000000">s1</text>
    <polygon
       points="60,-124 60,-104 8,-104 8,-124 "
       id="polygon12-6"
       style="fill:none;stroke:#000000"
       transform="matrix(1.2023833,0,0,0.99513124,-12.191791,-0.55503858)" />
    <text
       x="8.4514999"
       y="-109.8"
       font-size="14.00"
       id="text14-2"
       style="font-size:14px;font-family:Times, serif;text-anchor:start;fill:#000000">nombre</text>
    <polygon
       points="60,-124 96,-124 96,-104 60,-104 "
       id="polygon16-9"
       style="fill:none;stroke:#000000" />
    <text
       x="62.841301"
       y="-109.8"
       font-size="14.00"
       id="text18-1"
       style="font-size:14px;font-family:Times, serif;text-anchor:start;fill:#000000">valor</text>
    <polygon
       points="60,-84 8,-84 8,-104 60,-104 "
       id="polygon20-2"
       style="fill:none;stroke:#000000"
       transform="matrix(1.2024054,0,0,0.99513228,-12.192543,-0.45756624)" />
    <text
       x="22.24103"
       y="-91.22393"
       font-size="14.00"
       id="text22-7"
       style="font-size:14px;font-family:Times, serif;text-anchor:start;fill:#000000">ptr</text>
    <polygon
       points="60,-104 96,-104 96,-84 60,-84 "
       id="polygon24-0"
       style="fill:none;stroke:#000000" />
    <polygon
       points="60,-84 60,-64 8,-64 8,-84 "
       id="polygon26"
       style="fill:none;stroke:#000000"
       transform="matrix(1.2023833,0,0,0.99513124,-12.191791,-0.3602882)" />
    <text
       x="18.665709"
       y="-71.223717"
       font-size="14.00"
       id="text28"
       style="font-size:14px;font-family:Times, serif;text-anchor:start;fill:#000000">long</text>
    <polygon
       points="60,-84 96,-84 96,-64 60,-64 "
       id="polygon30"
       style="fill:none;stroke:#000000" />
    <text
       x="74.5"
       y="-69.800003"
       font-size="14.00"
       id="text32"
       style="font-size:14px;font-family:Times, serif;text-anchor:start;fill:#000000">5</text>
    <polygon
       points="60,-64 60,-44 8,-44 8,-64 "
       id="polygon34"
       style="fill:none;stroke:#000000"
       transform="matrix(1.2023833,0,0,0.99513124,-12.191791,-0.26291301)" />
    <text
       x="0.72492421"
       y="-49.799999"
       font-size="14.00"
       id="text36"
       style="font-size:14px;font-family:Times, serif;text-anchor:start;fill:#000000">capacidad</text>
    <polygon
       points="60,-64 96,-64 96,-44 60,-44 "
       id="polygon38"
       style="fill:none;stroke:#000000" />
    <text
       x="74.5"
       y="-49.799999"
       font-size="14.00"
       id="text40"
       style="font-size:14px;font-family:Times, serif;text-anchor:start;fill:#000000">5</text>
  </g>
  <g
     id="node1-9"
     class="node"
     transform="matrix(4.4680632,0,0,4.1660956,-22.578633,632.66065)">
    <title
       id="title6-3">table0</title>
    <text
       x="52.710804"
       y="-130.37212"
       font-size="14.00"
       id="text10-0"
       style="font-size:14px;font-family:Times, serif;text-anchor:start;fill:#000000">s</text>
    <polygon
       points="60,-124 60,-104 8,-104 8,-124 "
       id="polygon12-62"
       style="fill:none;stroke:#000000"
       transform="matrix(0.89393802,0,0,0.99828402,6.3637188,-0.17846192)" />
    <text
       x="15.386401"
       y="-109.8"
       font-size="14.00"
       id="text14-6"
       style="font-size:14px;font-family:Times, serif;text-anchor:start;fill:#000000">nombre</text>
    <polygon
       points="60,-124 96,-124 96,-104 60,-104 "
       id="polygon16-1"
       style="fill:none;stroke:#000000" />
    <text
       x="62.841301"
       y="-109.8"
       font-size="14.00"
       id="text18-8"
       style="font-size:14px;font-family:Times, serif;text-anchor:start;fill:#000000">valor</text>
    <polygon
       points="8,-104 60,-104 60,-84 8,-84 "
       id="polygon20-7"
       style="fill:none;stroke:#000000"
       transform="matrix(0.89807498,0,0,1.0026913,6.1565005,0.25297407)" />
    <text
       x="29.709385"
       y="-91.796051"
       font-size="14.00"
       id="text22-9"
       style="font-size:14px;font-family:Times, serif;text-anchor:start;fill:#000000">ptr</text>
    <polygon
       points="60,-104 96,-104 96,-84 60,-84 "
       id="polygon24-2"
       style="fill:none;stroke:#000000" />
  </g>
</svg>
