<?xml version="1.0" encoding="UTF-8" standalone="no"?>
<!-- Generated by graphviz version 2.40.1 (20161225.0304)
 -->

<!-- Title: %3 Pages: 1 -->

<svg
   xmlns:dc="http://purl.org/dc/elements/1.1/"
   xmlns:cc="http://creativecommons.org/ns#"
   xmlns:rdf="http://www.w3.org/1999/02/22-rdf-syntax-ns#"
   xmlns:svg="http://www.w3.org/2000/svg"
   xmlns="http://www.w3.org/2000/svg"
   xmlns:sodipodi="http://sodipodi.sourceforge.net/DTD/sodipodi-0.dtd"
   xmlns:inkscape="http://www.inkscape.org/namespaces/inkscape"
   viewBox="0.00 0.00 1000.00 700.00"
   version="1.1"
   id="svg102"
   sodipodi:docname="trpl04-01.svg"
   inkscape:version="0.92.1 r15371">
  <metadata
     id="metadata108">
    <rdf:RDF>
      <cc:Work
         rdf:about="">
        <dc:format>image/svg+xml</dc:format>
        <dc:type
           rdf:resource="http://purl.org/dc/dcmitype/StillImage" />
      </cc:Work>
    </rdf:RDF>
  </metadata>
  <defs
     id="defs106" />
  <sodipodi:namedview
     pagecolor="#ffffff"
     bordercolor="#666666"
     borderopacity="1"
     objecttolerance="10"
     gridtolerance="10"
     guidetolerance="10"
     inkscape:pageopacity="0"
     inkscape:pageshadow="2"
     inkscape:window-width="1440"
     inkscape:window-height="844"
     id="namedview104"
     showgrid="false"
     inkscape:zoom="0.33714286"
     inkscape:cx="500"
     inkscape:cy="350"
     inkscape:window-x="0"
     inkscape:window-y="27"
     inkscape:window-maximized="1"
     inkscape:current-layer="node2" />
  <g
     id="graph0"
     class="graph"
     transform="scale(4.1667 4.1667) rotate(0) translate(4 152)">
    <title
       id="title2">%3</title>
    <polygon
       fill="#ffffff"
       stroke="transparent"
       points="-4,4 -4,-152 233,-152 233,4 -4,4"
       id="polygon4" />
    <!-- table0 -->
    <g
       id="node1"
       class="node"
       transform="matrix(1.0723266,0,0,0.99985495,12.263837,-0.01325476)">
      <title
         id="title6">table0</title>
      <polyline
         points="8,-124 96,-124 "
         id="polyline8"
         style="fill:none;stroke:#000000" />
      <text
         x="45.775902"
         y="-129.8"
         font-size="14.00"
         id="text10"
         style="font-size:14px;font-family:Times, serif;text-anchor:start;fill:#000000">s1</text>
      <polygon
         points="8,-104 8,-124 60,-124 60,-104 "
         id="polygon12"
         style="fill:none;stroke:#000000"
         transform="matrix(1.2023833,0,0,0.99513124,-12.191791,-0.55503858)" />
      <text
         x="8.4514999"
         y="-109.8"
         font-size="14.00"
         id="text14"
         style="font-size:14px;font-family:Times, serif;text-anchor:start;fill:#000000">nombre</text>
      <polygon
         points="96,-104 60,-104 60,-124 96,-124 "
         id="polygon16"
         style="fill:none;stroke:#000000" />
      <text
         x="62.841301"
         y="-109.8"
         font-size="14.00"
         id="text18"
         style="font-size:14px;font-family:Times, serif;text-anchor:start;fill:#000000">valor</text>
      <polygon
         points="8,-104 60,-104 60,-84 8,-84 "
         id="polygon20"
         style="fill:none;stroke:#000000"
         transform="matrix(1.2024054,0,0,0.99513228,-12.192543,-0.45756624)" />
      <text
         x="22.24103"
         y="-91.22393"
         font-size="14.00"
         id="text22"
         style="font-size:14px;font-family:Times, serif;text-anchor:start;fill:#000000">ptr</text>
      <polygon
         points="96,-84 60,-84 60,-104 96,-104 "
         id="polygon24"
         style="fill:none;stroke:#000000" />
      <polygon
         points="8,-64 8,-84 60,-84 60,-64 "
         id="polygon26"
         style="fill:none;stroke:#000000"
         transform="matrix(1.2023833,0,0,0.99513124,-12.191791,-0.3602882)" />
      <text
         x="18.665709"
         y="-71.223717"
         font-size="14.00"
         id="text28"
         style="font-size:14px;font-family:Times, serif;text-anchor:start;fill:#000000">long</text>
      <polygon
         points="96,-64 60,-64 60,-84 96,-84 "
         id="polygon30"
         style="fill:none;stroke:#000000" />
      <text
         x="74.5"
         y="-69.800003"
         font-size="14.00"
         id="text32"
         style="font-size:14px;font-family:Times, serif;text-anchor:start;fill:#000000">5</text>
      <polygon
         points="8,-44 8,-64 60,-64 60,-44 "
         id="polygon34"
         style="fill:none;stroke:#000000"
         transform="matrix(1.2023833,0,0,0.99513124,-12.191791,-0.26291301)" />
      <text
         x="0.72492421"
         y="-49.799999"
         font-size="14.00"
         id="text36"
         style="font-size:14px;font-family:Times, serif;text-anchor:start;fill:#000000">capacidad</text>
      <polygon
         points="96,-44 60,-44 60,-64 96,-64 "
         id="polygon38"
         style="fill:none;stroke:#000000" />
      <text
         x="74.5"
         y="-49.799999"
         font-size="14.00"
         id="text40"
         style="font-size:14px;font-family:Times, serif;text-anchor:start;fill:#000000">5</text>
    </g>
    <!-- table1 -->
    <g
       id="node2"
       class="node">
      <title
         id="title43">table1</title>
      <polygon
         fill="none"
         stroke="#000000"
         points="148.5,-104 148.5,-124 185.5,-124 185.5,-104 148.5,-104"
         id="polygon45" />
      <text
         x="150.02448"
         y="-109.8"
         font-size="14.00"
         id="text47"
         style="font-size:14px;font-family:Times, serif;text-anchor:start;fill:#000000">indice</text>
      <polygon
         fill="none"
         stroke="#000000"
         points="185.5,-104 185.5,-124 221.5,-124 221.5,-104 185.5,-104"
         id="polygon49" />
      <text
         x="188.34129"
         y="-109.8"
         font-size="14.00"
         id="text51"
         style="font-size:14px;font-family:Times, serif;text-anchor:start;fill:#000000">valor</text>
      <polygon
         fill="none"
         stroke="#000000"
         points="148.5,-84 148.5,-104 185.5,-104 185.5,-84 148.5,-84"
         id="polygon53" />
      <text
         text-anchor="start"
         x="163.5"
         y="-89.8"
         font-family="Times,serif"
         font-size="14.00"
         fill="#000000"
         id="text55">0</text>
      <polygon
         fill="none"
         stroke="#000000"
         points="185.5,-84 185.5,-104 221.5,-104 221.5,-84 185.5,-84"
         id="polygon57" />
      <text
         text-anchor="start"
         x="200"
         y="-89.8"
         font-family="Times,serif"
         font-size="14.00"
         fill="#000000"
         id="text59">h</text>
      <polygon
         fill="none"
         stroke="#000000"
         points="148.5,-64 148.5,-84 185.5,-84 185.5,-64 148.5,-64"
         id="polygon61" />
      <text
         text-anchor="start"
         x="163.5"
         y="-69.8"
         font-family="Times,serif"
         font-size="14.00"
         fill="#000000"
         id="text63">1</text>
      <polygon
         fill="none"
         stroke="#000000"
         points="185.5,-64 185.5,-84 221.5,-84 221.5,-64 185.5,-64"
         id="polygon65" />
      <text
         x="200.3931"
         y="-69.800003"
         font-size="14.00"
         id="text67"
         style="font-size:14px;font-family:Times, serif;text-anchor:start;fill:#000000">o</text>
      <polygon
         fill="none"
         stroke="#000000"
         points="148.5,-44 148.5,-64 185.5,-64 185.5,-44 148.5,-44"
         id="polygon69" />
      <text
         text-anchor="start"
         x="163.5"
         y="-49.8"
         font-family="Times,serif"
         font-size="14.00"
         fill="#000000"
         id="text71">2</text>
      <polygon
         fill="none"
         stroke="#000000"
         points="185.5,-44 185.5,-64 221.5,-64 221.5,-44 185.5,-44"
         id="polygon73" />
      <text
         text-anchor="start"
         x="201.5552"
         y="-49.8"
         font-family="Times,serif"
         font-size="14.00"
         fill="#000000"
         id="text75">l</text>
      <polygon
         fill="none"
         stroke="#000000"
         points="148.5,-24 148.5,-44 185.5,-44 185.5,-24 148.5,-24"
         id="polygon77" />
      <text
         text-anchor="start"
         x="163.5"
         y="-29.8"
         font-family="Times,serif"
         font-size="14.00"
         fill="#000000"
         id="text79">3</text>
      <polygon
         fill="none"
         stroke="#000000"
         points="185.5,-24 185.5,-44 221.5,-44 221.5,-24 185.5,-24"
         id="polygon81" />
      <text
         x="201.55521"
         y="-29.799999"
         font-size="14.00"
         id="text83"
         style="font-size:14px;font-family:Times, serif;text-anchor:start;fill:#000000">a</text>
      <polygon
         fill="none"
         stroke="#000000"
         points="148.5,-4 148.5,-24 185.5,-24 185.5,-4 148.5,-4"
         id="polygon85" />
      <text
         text-anchor="start"
         x="163.5"
         y="-9.8"
         font-family="Times,serif"
         font-size="14.00"
         fill="#000000"
         id="text87">4</text>
      <polygon
         fill="none"
         stroke="#000000"
         points="185.5,-4 185.5,-24 221.5,-24 221.5,-4 185.5,-4"
         id="polygon89" />
      <text
         xml:space="preserve"
         style="font-style:normal;font-weight:normal;font-size:9.59992313px;line-height:1.25;font-family:sans-serif;letter-spacing:0px;word-spacing:0px;fill:#000000;fill-opacity:1;stroke:none;stroke-width:0.23999809"
         x="188.91371"
         y="-12.475698"
         id="text112"><tspan
           sodipodi:role="line"
           id="tspan110"
           x="188.91371"
           y="-12.475698"
           style="stroke-width:0.23999809">space</tspan></text>
    </g>
    <!-- table0&#45;&gt;table1 -->
    <g
       id="edge1"
       class="edge"
       transform="matrix(0.75766512,0,0,1,35.98673,0)">
      <title
         id="title94">table0:c-&gt;table1:pointee</title>
      <path
         d="m 78,-94 c 0,0 31.3406,0 60.3797,0"
         id="path96"
         inkscape:connector-curvature="0"
         style="fill:none;stroke:#000000" />
      <polygon
         points="148.5,-94 138.5,-90.5001 138.5,-97.5001 "
         id="polygon98"
         style="fill:#000000;stroke:#000000" />
    </g>
  </g>
</svg>
