<?xml version="1.0" encoding="UTF-8" standalone="no"?>
<!-- Generated by graphviz version 2.40.1 (20161225.0304)
 -->

<!-- Title: %3 Pages: 1 -->

<svg
   xmlns:dc="http://purl.org/dc/elements/1.1/"
   xmlns:cc="http://creativecommons.org/ns#"
   xmlns:rdf="http://www.w3.org/1999/02/22-rdf-syntax-ns#"
   xmlns:svg="http://www.w3.org/2000/svg"
   xmlns="http://www.w3.org/2000/svg"
   xmlns:sodipodi="http://sodipodi.sourceforge.net/DTD/sodipodi-0.dtd"
   xmlns:inkscape="http://www.inkscape.org/namespaces/inkscape"
   viewBox="0.00 0.00 1000.00 1300.00"
   version="1.1"
   id="svg197"
   sodipodi:docname="trpl04-03.svg"
   inkscape:version="0.92.1 r15371">
  <metadata
     id="metadata203">
    <rdf:RDF>
      <cc:Work
         rdf:about="">
        <dc:format>image/svg+xml</dc:format>
        <dc:type
           rdf:resource="http://purl.org/dc/dcmitype/StillImage" />
      </cc:Work>
    </rdf:RDF>
  </metadata>
  <defs
     id="defs201" />
  <sodipodi:namedview
     pagecolor="#ffffff"
     bordercolor="#666666"
     borderopacity="1"
     objecttolerance="10"
     gridtolerance="10"
     guidetolerance="10"
     inkscape:pageopacity="0"
     inkscape:pageshadow="2"
     inkscape:window-width="1440"
     inkscape:window-height="844"
     id="namedview199"
     showgrid="false"
     inkscape:zoom="0.36307692"
     inkscape:cx="507.83039"
     inkscape:cy="737.98496"
     inkscape:window-x="0"
     inkscape:window-y="27"
     inkscape:window-maximized="1"
     inkscape:current-layer="graph0-3" />
  <g
     id="graph0"
     class="graph"
     transform="scale(4.1667 4.1667) rotate(0) translate(4 298)">
    <title
       id="title2">%3</title>
    <polygon
       fill="#ffffff"
       stroke="transparent"
       points="-4,4 -4,-298 233,-298 233,4 -4,4"
       id="polygon4" />
    <!-- table0 -->
    <!-- table1 -->
    <!-- table0&#45;&gt;table1 -->
    <g
       id="edge1"
       class="edge">
      <title
         id="title94">table0:c-&gt;table1:pointee</title>
      <path
         fill="none"
         stroke="#000000"
         d="M78,-94C78,-94 109.3406,-94 138.3797,-94"
         id="path96" />
      <polygon
         fill="#000000"
         stroke="#000000"
         points="138.5,-97.5001 148.5,-94 138.5,-90.5001 138.5,-97.5001"
         id="polygon98" />
    </g>
    <!-- table3 -->
    <!-- table4 -->
    <!-- table3&#45;&gt;table4 -->
    <g
       id="edge2"
       class="edge">
      <title
         id="title189">table3:c-&gt;table4:pointee</title>
      <path
         fill="none"
         stroke="#000000"
         d="M78,-240C78,-240 109.3406,-240 138.3797,-240"
         id="path191" />
      <polygon
         fill="#000000"
         stroke="#000000"
         points="138.5,-243.5001 148.5,-240 138.5,-236.5001 138.5,-243.5001"
         id="polygon193" />
    </g>
  </g>
  <g
     id="graph0-3"
     class="graph"
     transform="matrix(3.6254724,0,0,3.7581252,-1143.8251,825.85291)">
    <title
       id="title2-6">%3</title>
    <polygon
       stroke="transparent"
       points="233,4 -4,4 -4,-238 233,-238 "
       id="polygon4-7"
       transform="matrix(1.0910235,0,0,1,-21.208483,0)"
       style="fill:#ffffff" />
    <!-- table0 -->
    <!-- table1 -->
    <!-- table0&#45;&gt;table1 -->
    <!-- table3 -->
    <!-- table3&#45;&gt;table1 -->
    <g
       id="node1-1"
       class="node"
       transform="matrix(1.0723266,0,0,0.99985495,334.22132,-65.247786)">
      <title
         id="title6-2">table0</title>
      <polyline
         points="8,-124 96,-124 "
         id="polyline8-70"
         style="fill:none;stroke:#000000" />
      <text
         x="45.775902"
         y="-129.8"
         font-size="14.00"
         id="text10-9"
         style="font-size:14px;font-family:Times, serif;text-anchor:start;fill:#000000">s1</text>
      <polygon
         points="8,-104 8,-124 60,-124 60,-104 "
         id="polygon12-36"
         style="fill:none;stroke:#000000"
         transform="matrix(1.2023833,0,0,0.99513124,-12.191791,-0.55503858)" />
      <text
         x="8.4514999"
         y="-109.8"
         font-size="14.00"
         id="text14-0"
         style="font-size:14px;font-family:Times, serif;text-anchor:start;fill:#000000">nombre</text>
      <polygon
         points="96,-104 60,-104 60,-124 96,-124 "
         id="polygon16-62"
         style="fill:none;stroke:#000000" />
      <text
         x="62.841301"
         y="-109.8"
         font-size="14.00"
         id="text18-6"
         style="font-size:14px;font-family:Times, serif;text-anchor:start;fill:#000000">valor</text>
      <polygon
         points="8,-104 60,-104 60,-84 8,-84 "
         id="polygon20-1"
         style="fill:none;stroke:#000000"
         transform="matrix(1.2024054,0,0,0.99513228,-12.192543,-0.45756624)" />
      <text
         x="22.24103"
         y="-91.22393"
         font-size="14.00"
         id="text22-8"
         style="font-size:14px;font-family:Times, serif;text-anchor:start;fill:#000000">ptr</text>
      <polygon
         points="96,-84 60,-84 60,-104 96,-104 "
         id="polygon24-7"
         style="fill:none;stroke:#000000" />
      <polygon
         points="8,-64 8,-84 60,-84 60,-64 "
         id="polygon26-9"
         style="fill:none;stroke:#000000"
         transform="matrix(1.2023833,0,0,0.99513124,-12.191791,-0.3602882)" />
      <text
         x="18.665709"
         y="-71.223717"
         font-size="14.00"
         id="text28-2"
         style="font-size:14px;font-family:Times, serif;text-anchor:start;fill:#000000">long</text>
      <polygon
         points="96,-64 60,-64 60,-84 96,-84 "
         id="polygon30-0"
         style="fill:none;stroke:#000000" />
      <text
         x="74.5"
         y="-69.800003"
         font-size="14.00"
         id="text32-2"
         style="font-size:14px;font-family:Times, serif;text-anchor:start;fill:#000000">5</text>
      <polygon
         points="8,-44 8,-64 60,-64 60,-44 "
         id="polygon34-3"
         style="fill:none;stroke:#000000"
         transform="matrix(1.2023833,0,0,0.99513124,-12.191791,-0.26291301)" />
      <text
         x="0.72492421"
         y="-49.799999"
         font-size="14.00"
         id="text36-7"
         style="font-size:14px;font-family:Times, serif;text-anchor:start;fill:#000000">capacidad</text>
      <polygon
         points="96,-44 60,-44 60,-64 96,-64 "
         id="polygon38-5"
         style="fill:none;stroke:#000000" />
      <text
         x="74.5"
         y="-49.799999"
         font-size="14.00"
         id="text40-9"
         style="font-size:14px;font-family:Times, serif;text-anchor:start;fill:#000000">5</text>
    </g>
    <g
       id="node1-3"
       class="node"
       transform="matrix(1.0723266,0,0,0.99985495,331.94668,95.852999)">
      <title
         id="title6-6">table0</title>
      <polyline
         points="8,-124 96,-124 "
         id="polyline8-7"
         style="fill:none;stroke:#000000" />
      <text
         x="45.775902"
         y="-129.8"
         font-size="14.00"
         id="text10-5"
         style="font-size:14px;font-family:Times, serif;text-anchor:start;fill:#000000">s2</text>
      <polygon
         points="60,-124 60,-104 8,-104 8,-124 "
         id="polygon12-3"
         style="fill:none;stroke:#000000"
         transform="matrix(1.2023833,0,0,0.99513124,-12.191791,-0.55503858)" />
      <text
         x="8.4514999"
         y="-109.8"
         font-size="14.00"
         id="text14-5"
         style="font-size:14px;font-family:Times, serif;text-anchor:start;fill:#000000">nombre</text>
      <polygon
         points="60,-124 96,-124 96,-104 60,-104 "
         id="polygon16-6"
         style="fill:none;stroke:#000000" />
      <text
         x="62.841301"
         y="-109.8"
         font-size="14.00"
         id="text18-2"
         style="font-size:14px;font-family:Times, serif;text-anchor:start;fill:#000000">valor</text>
      <polygon
         points="60,-84 8,-84 8,-104 60,-104 "
         id="polygon20-9"
         style="fill:none;stroke:#000000"
         transform="matrix(1.2024054,0,0,0.99513228,-12.192543,-0.45756624)" />
      <text
         x="22.24103"
         y="-91.22393"
         font-size="14.00"
         id="text22-1"
         style="font-size:14px;font-family:Times, serif;text-anchor:start;fill:#000000">ptr</text>
      <polygon
         points="60,-104 96,-104 96,-84 60,-84 "
         id="polygon24-2"
         style="fill:none;stroke:#000000" />
      <polygon
         points="60,-84 60,-64 8,-64 8,-84 "
         id="polygon26-7"
         style="fill:none;stroke:#000000"
         transform="matrix(1.2023833,0,0,0.99513124,-12.191791,-0.3602882)" />
      <text
         x="18.665709"
         y="-71.223717"
         font-size="14.00"
         id="text28-0"
         style="font-size:14px;font-family:Times, serif;text-anchor:start;fill:#000000">long</text>
      <polygon
         points="60,-84 96,-84 96,-64 60,-64 "
         id="polygon30-9"
         style="fill:none;stroke:#000000" />
      <text
         x="74.5"
         y="-69.800003"
         font-size="14.00"
         id="text32-3"
         style="font-size:14px;font-family:Times, serif;text-anchor:start;fill:#000000">5</text>
      <polygon
         points="60,-64 60,-44 8,-44 8,-64 "
         id="polygon34-6"
         style="fill:none;stroke:#000000"
         transform="matrix(1.2023833,0,0,0.99513124,-12.191791,-0.26291301)" />
      <text
         x="0.72492421"
         y="-49.799999"
         font-size="14.00"
         id="text36-0"
         style="font-size:14px;font-family:Times, serif;text-anchor:start;fill:#000000">capacidad</text>
      <polygon
         points="60,-64 96,-64 96,-44 60,-44 "
         id="polygon38-6"
         style="fill:none;stroke:#000000" />
      <text
         x="74.5"
         y="-49.799999"
         font-size="14.00"
         id="text40-2"
         style="font-size:14px;font-family:Times, serif;text-anchor:start;fill:#000000">5</text>
    </g>
    <g
       transform="translate(343.39844,99.954489)"
       id="node2-2"
       class="node">
      <title
         id="title43-2">table1</title>
      <polygon
         style="fill:none;stroke:#000000"
         points="148.5,-124 185.5,-124 185.5,-104 148.5,-104 "
         id="polygon45-8" />
      <text
         x="150.02448"
         y="-109.8"
         font-size="14.00"
         id="text47-9"
         style="font-size:14px;font-family:Times, serif;text-anchor:start;fill:#000000">indice</text>
      <polygon
         style="fill:none;stroke:#000000"
         points="185.5,-124 221.5,-124 221.5,-104 185.5,-104 "
         id="polygon49-7" />
      <text
         x="188.34129"
         y="-109.8"
         font-size="14.00"
         id="text51-3"
         style="font-size:14px;font-family:Times, serif;text-anchor:start;fill:#000000">valor</text>
      <polygon
         style="fill:none;stroke:#000000"
         points="148.5,-104 185.5,-104 185.5,-84 148.5,-84 "
         id="polygon53-6" />
      <text
         style="font-size:14px;font-family:Times, serif;text-anchor:start;fill:#000000"
         x="163.5"
         y="-89.800003"
         font-size="14.00"
         id="text55-1">0</text>
      <polygon
         style="fill:none;stroke:#000000"
         points="185.5,-104 221.5,-104 221.5,-84 185.5,-84 "
         id="polygon57-2" />
      <text
         style="font-size:14px;font-family:Times, serif;text-anchor:start;fill:#000000"
         x="200"
         y="-89.800003"
         font-size="14.00"
         id="text59-9">h</text>
      <polygon
         style="fill:none;stroke:#000000"
         points="148.5,-84 185.5,-84 185.5,-64 148.5,-64 "
         id="polygon61-3" />
      <text
         style="font-size:14px;font-family:Times, serif;text-anchor:start;fill:#000000"
         x="163.5"
         y="-69.800003"
         font-size="14.00"
         id="text63-1">1</text>
      <polygon
         style="fill:none;stroke:#000000"
         points="185.5,-84 221.5,-84 221.5,-64 185.5,-64 "
         id="polygon65-9" />
      <text
         x="200.3931"
         y="-69.800003"
         font-size="14.00"
         id="text67-4"
         style="font-size:14px;font-family:Times, serif;text-anchor:start;fill:#000000">o</text>
      <polygon
         style="fill:none;stroke:#000000"
         points="148.5,-64 185.5,-64 185.5,-44 148.5,-44 "
         id="polygon69-7" />
      <text
         style="font-size:14px;font-family:Times, serif;text-anchor:start;fill:#000000"
         x="163.5"
         y="-49.799999"
         font-size="14.00"
         id="text71-8">2</text>
      <polygon
         style="fill:none;stroke:#000000"
         points="185.5,-64 221.5,-64 221.5,-44 185.5,-44 "
         id="polygon73-4" />
      <text
         style="font-size:14px;font-family:Times, serif;text-anchor:start;fill:#000000"
         x="201.55521"
         y="-49.799999"
         font-size="14.00"
         id="text75-5">l</text>
      <polygon
         style="fill:none;stroke:#000000"
         points="148.5,-44 185.5,-44 185.5,-24 148.5,-24 "
         id="polygon77-0" />
      <text
         style="font-size:14px;font-family:Times, serif;text-anchor:start;fill:#000000"
         x="163.5"
         y="-29.799999"
         font-size="14.00"
         id="text79-3">3</text>
      <polygon
         style="fill:none;stroke:#000000"
         points="185.5,-44 221.5,-44 221.5,-24 185.5,-24 "
         id="polygon81-6" />
      <text
         x="201.55521"
         y="-29.799999"
         font-size="14.00"
         id="text83-1"
         style="font-size:14px;font-family:Times, serif;text-anchor:start;fill:#000000">a</text>
      <polygon
         style="fill:none;stroke:#000000"
         points="148.5,-24 185.5,-24 185.5,-4 148.5,-4 "
         id="polygon85-0" />
      <text
         style="font-size:14px;font-family:Times, serif;text-anchor:start;fill:#000000"
         x="163.5"
         y="-9.8000002"
         font-size="14.00"
         id="text87-6">4</text>
      <polygon
         style="fill:none;stroke:#000000"
         points="185.5,-24 221.5,-24 221.5,-4 185.5,-4 "
         id="polygon89-3" />
      <text
         xml:space="preserve"
         style="font-style:normal;font-weight:normal;font-size:9.59992313px;line-height:1.25;font-family:sans-serif;letter-spacing:0px;word-spacing:0px;fill:#000000;fill-opacity:1;stroke:none;stroke-width:0.23999809"
         x="188.91371"
         y="-12.475698"
         id="text112"><tspan
           sodipodi:role="line"
           id="tspan110"
           x="188.91371"
           y="-12.475698"
           style="stroke-width:0.23999809">space</tspan></text>
    </g>
    <g
       transform="translate(344.3559,-63.260251)"
       id="node2-2-2"
       class="node">
      <title
         id="title43-2-0">table1</title>
      <polygon
         style="fill:none;stroke:#000000"
         points="148.5,-124 185.5,-124 185.5,-104 148.5,-104 "
         id="polygon45-8-6" />
      <text
         x="150.02448"
         y="-109.8"
         font-size="14.00"
         id="text47-9-1"
         style="font-size:14px;font-family:Times, serif;text-anchor:start;fill:#000000">indice</text>
      <polygon
         style="fill:none;stroke:#000000"
         points="185.5,-124 221.5,-124 221.5,-104 185.5,-104 "
         id="polygon49-7-5" />
      <text
         x="188.34129"
         y="-109.8"
         font-size="14.00"
         id="text51-3-5"
         style="font-size:14px;font-family:Times, serif;text-anchor:start;fill:#000000">valor</text>
      <polygon
         style="fill:none;stroke:#000000"
         points="148.5,-104 185.5,-104 185.5,-84 148.5,-84 "
         id="polygon53-6-4" />
      <text
         style="font-size:14px;font-family:Times, serif;text-anchor:start;fill:#000000"
         x="163.5"
         y="-89.800003"
         font-size="14.00"
         id="text55-1-7">0</text>
      <polygon
         style="fill:none;stroke:#000000"
         points="185.5,-104 221.5,-104 221.5,-84 185.5,-84 "
         id="polygon57-2-6" />
      <text
         style="font-size:14px;font-family:Times, serif;text-anchor:start;fill:#000000"
         x="200"
         y="-89.800003"
         font-size="14.00"
         id="text59-9-5">h</text>
      <polygon
         style="fill:none;stroke:#000000"
         points="148.5,-84 185.5,-84 185.5,-64 148.5,-64 "
         id="polygon61-3-6" />
      <text
         style="font-size:14px;font-family:Times, serif;text-anchor:start;fill:#000000"
         x="163.5"
         y="-69.800003"
         font-size="14.00"
         id="text63-1-9">1</text>
      <polygon
         style="fill:none;stroke:#000000"
         points="185.5,-84 221.5,-84 221.5,-64 185.5,-64 "
         id="polygon65-9-3" />
      <text
         x="200.3931"
         y="-69.800003"
         font-size="14.00"
         id="text67-4-7"
         style="font-size:14px;font-family:Times, serif;text-anchor:start;fill:#000000">o</text>
      <polygon
         style="fill:none;stroke:#000000"
         points="148.5,-64 185.5,-64 185.5,-44 148.5,-44 "
         id="polygon69-7-4" />
      <text
         style="font-size:14px;font-family:Times, serif;text-anchor:start;fill:#000000"
         x="163.5"
         y="-49.799999"
         font-size="14.00"
         id="text71-8-5">2</text>
      <polygon
         style="fill:none;stroke:#000000"
         points="185.5,-64 221.5,-64 221.5,-44 185.5,-44 "
         id="polygon73-4-2" />
      <text
         style="font-size:14px;font-family:Times, serif;text-anchor:start;fill:#000000"
         x="201.55521"
         y="-49.799999"
         font-size="14.00"
         id="text75-5-5">l</text>
      <polygon
         style="fill:none;stroke:#000000"
         points="148.5,-44 185.5,-44 185.5,-24 148.5,-24 "
         id="polygon77-0-4" />
      <text
         style="font-size:14px;font-family:Times, serif;text-anchor:start;fill:#000000"
         x="163.5"
         y="-29.799999"
         font-size="14.00"
         id="text79-3-7">3</text>
      <polygon
         style="fill:none;stroke:#000000"
         points="185.5,-44 221.5,-44 221.5,-24 185.5,-24 "
         id="polygon81-6-4" />
      <text
         x="201.55521"
         y="-29.799999"
         font-size="14.00"
         id="text83-1-4"
         style="font-size:14px;font-family:Times, serif;text-anchor:start;fill:#000000">a</text>
      <polygon
         style="fill:none;stroke:#000000"
         points="148.5,-24 185.5,-24 185.5,-4 148.5,-4 "
         id="polygon85-0-3" />
      <text
         style="font-size:14px;font-family:Times, serif;text-anchor:start;fill:#000000"
         x="163.5"
         y="-9.8000002"
         font-size="14.00"
         id="text87-6-0">4</text>
      <polygon
         style="fill:none;stroke:#000000"
         points="185.5,-24 221.5,-24 221.5,-4 185.5,-4 "
         id="polygon89-3-7" />
      <text
         xml:space="preserve"
         style="font-style:normal;font-weight:normal;font-size:9.59992313px;line-height:1.25;font-family:sans-serif;letter-spacing:0px;word-spacing:0px;fill:#000000;fill-opacity:1;stroke:none;stroke-width:0.23999809"
         x="188.91371"
         y="-12.475698"
         id="text112-8"><tspan
           sodipodi:role="line"
           id="tspan110-6"
           x="188.91371"
           y="-12.475698"
           style="stroke-width:0.23999809">space</tspan></text>
    </g>
  </g>
</svg>
